# xmcd
#
# Track frame offsets: 
#        150
#        19142
#        39354
#        53277
#        73156
#        86916
#        101219
#        116775
#        129260
#        146209
#        163398
#        180328
#
# Disc length: 2599 seconds
#
# Revision: 4
# Processed by: cddbd v1.5.2PL0 Copyright (c) Steve Scherf et al.
# Submitted via: ExactAudioCopyFreeDBPlugin 1.0
#
DISCID=a80a250c
DTITLE=Various Artist - Can't Live Without It!:  Antone's - Bringing 
DTITLE=You the Best in Blues
DYEAR=1995
DGENRE=Blues
TTITLE0=Luther Tucker - Can't Live Without It
TTITLE1=Lavelle White - Voodoo Man
TTITLE2=Candye Kane - Why'd You Have to Say That "L  Word?"
TTITLE3=Doyle Bramhall - Bird Nest on the Ground
TTITLE4=Kim Wilson - Baby Please Don't Lie to Me
TTITLE5=Sue Foley - Give Me Time
TTITLE6=Snooky Pryor - Slow Down Baby
TTITLE7=Doug Sahm - She Put the Hurt on Me
TTITLE8=Candye Kane - It Won't Be Long
TTITLE9=Lewis Cowdrey - Itchy and Scratchy
TTITLE10=Luther Tucker - Keep on Drinking
TTITLE11=Lavelle White - Stop These Teardrops
EXTD=
EXTT0=Luther Tucker\n
EXTT1=Lavelle White\n
EXTT2=Candye Kane\n
EXTT3=Doyle Bramhall\n
EXTT4=Kim Wilson\n
EXTT5=Sue Foley\n
EXTT6=Snooky Prior\n
EXTT7=Doug Sahm\n
EXTT8=Candye Kane\n
EXTT9=Lewis Cowdrey\n
EXTT10=Luther Tucker\n
EXTT11=Lavelle White\n
PLAYORDER=
